<?xml version="1.0"?>
<svg xmlns="http://www.w3.org/2000/svg" xmlns:xlink="http://www.w3.org/1999/xlink" xmlns:svgjs="http://svgjs.com/svgjs" version="1.1" width="512" height="512" x="0" y="0" viewBox="0 0 64 64" style="enable-background:new 0 0 512 512" xml:space="preserve" class=""><g><g xmlns="http://www.w3.org/2000/svg"><path d="m58 54.998v-30.141c-.789-.206-1.478-.644-1.999-1.24-.734.84-1.8 1.383-3 1.383 0 0 0 0-.001 0-1.2-.001-2.265-.544-2.999-1.383-.734.84-1.8 1.383-3 1.383 0 0 0 0-.001 0-1.2-.001-2.265-.544-2.999-1.383-.734.84-1.8 1.383-3 1.383 0 0 0 0-.001 0-1.2-.001-2.265-.544-2.999-1.383-.734.84-1.8 1.383-3 1.383 0 0 0 0-.001 0-1.2-.001-2.265-.544-2.999-1.383-.734.84-1.8 1.383-3 1.383 0 0 0 0-.001 0-1.2-.001-2.265-.544-2.999-1.383-.734.84-1.8 1.383-3 1.383 0 0 0 0-.001 0-1.2-.001-2.265-.544-2.999-1.383-.734.84-1.8 1.383-3 1.383 0 0 0 0-.001 0-1.2-.001-2.265-.544-2.999-1.383-.735.84-1.801 1.383-3.001 1.383 0 0 0 0-.001 0-1.2-.001-2.265-.543-2.999-1.383-.522.597-1.211 1.036-2.001 1.241v2.141h29c.553 0 1 .447 1 1v26.999h2v-26.999c0-.553.447-1 1-1h16c.553 0 1 .447 1 1v26.999z" fill="#f28a80" data-original="#000000" style=""/><path d="m40 54.998h14v-22h-14zm3-14.999c1.103 0 2 .896 2 2 0 1.103-.897 1.999-2 1.999s-2-.896-2-1.999.896-2 2-2z" fill="#f28a80" data-original="#000000" style=""/><path d="m40 28.999h14v2h-14z" fill="#f28a80" data-original="#000000" style=""/><path d="m33.999 32.998h-28v14.001h28zm-23.292 11.708-1.415-1.415 7-7 1.415 1.415zm9 0-1.415-1.415 7-7 1.415 1.415z" fill="#f28a80" data-original="#000000" style=""/><path d="m5.999 48.998h28v6h-28z" fill="#f28a80" data-original="#000000" style=""/><path d="m8 14.999h6 6s0 0 0 0h6s0 0 0 0h6s0 0 0 0h6s0 0 0 0h6s0 0 0 0h6s0 0 0 0h6s0 0 0 0h4.999v-5c0-.552-.448-1-1-1h-16v1.999c0 1.104-.897 2-2 2h-19.999c-1.103 0-2-.896-2-2v-1.999h-16c-.552 0-1 .448-1 1v5z" fill="#f28a80" data-original="#000000" style=""/><path d="m55.999 5.999c0-.552-.448-1-1-1h-11v2h12z" fill="#f28a80" data-original="#000000" style=""/><path d="m37 5.999h-10c-.552 0-1 .448-1 1 0 .551.448.999 1 .999h10c.551 0 .999-.447.999-.998 0-.553-.448-1.001-.999-1.001z" fill="#f28a80" data-original="#000000" style=""/><path d="m41.999 2.999h-19.999v7.999h20.001zm-4.999 6.999h-10c-1.654 0-3-1.345-3-2.998 0-1.655 1.346-3.001 3-3.001h10c1.654 0 2.999 1.346 2.999 3 0 1.653-1.345 2.999-2.999 2.999z" fill="#f28a80" data-original="#000000" style=""/><path d="m20 4.999h-11c-.552 0-1 .448-1 1v1h12z" fill="#f28a80" data-original="#000000" style=""/><path d="m5.999 28.999h28v2h-28z" fill="#f28a80" data-original="#000000" style=""/><path d="m12.999 21v-4.001h-3.999v4.001.002c.001 1.1.898 1.997 2 1.998 1.102 0 1.999-.897 1.999-2z" fill="#f28a80" data-original="#000000" style=""/><path d="m37 21v-4.001h-4v4.001c0 1.102.897 1.999 2 2 1.103 0 2-.897 2-2z" fill="#f28a80" data-original="#000000" style=""/><path d="m43 21v-4.001h-4v4.001c0 1.102.897 1.999 2 2 1.103 0 2-.897 2-2z" fill="#f28a80" data-original="#000000" style=""/><path d="m49 21v-4.001h-4v4.001c0 1.102.897 1.999 2 2 1.103 0 2-.897 2-2z" fill="#f28a80" data-original="#000000" style=""/><path d="m31 21v-4.001h-4v4.001c0 1.102.897 1.999 2 2 1.103 0 2-.897 2-2z" fill="#f28a80" data-original="#000000" style=""/><path d="m55 21v-4.001h-4v4.001c0 1.102.897 1.999 2 2 1.103 0 2-.897 2-2z" fill="#f28a80" data-original="#000000" style=""/><path d="m5 23c1.102 0 1.998-.896 2-1.998 0 0 0-.001 0-.002v-4.001h-4v4c0 1.103.897 2 2 2.001z" fill="#f28a80" data-original="#000000" style=""/><path d="m19 21v-4.001h-4v4.001c0 1.102.897 1.999 2 2 1.103 0 2-.897 2-2z" fill="#f28a80" data-original="#000000" style=""/><path d="m60 56.998h-56c-.551 0-1 .449-1 1v3.001h58v-3.001c0-.551-.449-1-1-1z" fill="#f28a80" data-original="#000000" style=""/><path d="m57 16.999v4.001c0 1.102.897 1.999 2 2 1.103 0 2-.897 2-2v-4.001z" fill="#f28a80" data-original="#000000" style=""/><path d="m25 21v-4.001h-4v4.001c0 1.102.897 1.999 2 2 1.103 0 2-.897 2-2z" fill="#f28a80" data-original="#000000" style=""/></g></g></svg>
